<?xml version="1.0" encoding="UTF-8" standalone="no"?>
<!-- Created with Inkscape (http://www.inkscape.org/) -->

<svg
   width="128.0px"
   height="128.0px"
   viewBox="0 0 128.0 128.0"
   version="1.1"
   id="SVGRoot"
   sodipodi:docname="punch.svg"
   inkscape:version="1.2 (dc2aedaf03, 2022-05-15)"
   xmlns:inkscape="http://www.inkscape.org/namespaces/inkscape"
   xmlns:sodipodi="http://sodipodi.sourceforge.net/DTD/sodipodi-0.dtd"
   xmlns="http://www.w3.org/2000/svg"
   xmlns:svg="http://www.w3.org/2000/svg">
  <sodipodi:namedview
     id="namedview816"
     pagecolor="#505050"
     bordercolor="#eeeeee"
     borderopacity="1"
     inkscape:showpageshadow="0"
     inkscape:pageopacity="0"
     inkscape:pagecheckerboard="0"
     inkscape:deskcolor="#505050"
     inkscape:document-units="px"
     showgrid="true"
     inkscape:zoom="5.9264706"
     inkscape:cx="103.01241"
     inkscape:cy="72.218362"
     inkscape:window-width="1920"
     inkscape:window-height="1009"
     inkscape:window-x="-8"
     inkscape:window-y="-8"
     inkscape:window-maximized="1"
     inkscape:current-layer="layer1">
    <inkscape:grid
       type="xygrid"
       id="grid939" />
  </sodipodi:namedview>
  <defs
     id="defs811" />
  <g
     inkscape:label="Layer 1"
     inkscape:groupmode="layer"
     id="layer1">
    <path
       style="fill:#ffffff;fill-opacity:1;stroke:#a9a9a9;stroke-width:4.28598;stroke-linejoin:round;stroke-dasharray:none;stroke-opacity:1"
       d="m 111,87 c 0,5.088113 -4.05114,9.150163 -10,10 -7,1 -28.292893,5.53553 -29,2 -1,-5 1.796509,-9.037654 4,-13 6.659916,-11.975947 17.946425,-38.544645 27,-31 8,10 8,27 8,32 z"
       id="path4693"
       sodipodi:nodetypes="sssacs" />
    <path
       style="fill:#ffffff;fill-opacity:1;stroke:#a9a9a9;stroke-width:4.28598;stroke-linejoin:round;stroke-dasharray:none;stroke-opacity:1"
       d="m 25.559269,29.629989 c 3.630646,-1.890954 8.650056,-1.890954 12.280702,0 2.111199,1.099578 1.725418,6.092442 4.093567,5.851393 3.42475,-0.348599 1.217135,-7.5902 4.093568,-9.481382 3.420495,-2.248889 8.661207,-1.912211 12.280701,0 2.14075,1.130978 1.68136,6.20778 4.093568,6 3.283584,-0.282837 1.322373,-7.216071 4.093567,-9 3.442037,-2.215778 8.838665,-2.215778 12.280702,0 2.771194,1.783929 0.854088,8.39362 4.093567,9 1.87523,0.351014 2.3268,-3.280117 4.093568,-4 3.790954,-1.544654 8.759269,-2.087298 12.2807,0 2.445391,1.449483 3.831251,5.115496 4.093571,7.481382 1.62573,14.662539 1.62573,30.662539 0,46.811146 -0.23844,2.368413 -1.98237,4.751815 -4.093571,5.851393 -3.630645,1.890952 -8.650055,1.890952 -12.2807,0 -2.111199,-1.099578 -4.093568,-3.471008 -4.093568,-5.851393 V 52.143921 82.292528 c 0,2.380385 -1.982368,4.751815 -4.093567,5.851393 -3.630646,1.890953 -8.650056,1.890953 -12.280702,0 -2.111199,-1.099578 -4.093567,-3.471008 -4.093567,-5.851393 V 52.143921 82.292528 c 0,2.380385 -1.982369,4.751815 -4.093568,5.851393 -3.630645,1.890953 -8.650055,1.890953 -12.280701,0 -2.111199,-1.099578 -4.099297,-3.471015 -4.093568,-5.851393 0.02924,-12.148607 0,-30.148607 0,-30.148607 0,0 0.02924,18 0,30.148607 -0.0057,2.380378 -1.982368,4.751815 -4.093567,5.851393 -3.630646,1.890953 -8.650056,1.890953 -12.280702,0 -2.111199,-1.099578 -3.858558,-3.482638 -4.093567,-5.851393 -1.502923,-15.148607 -1.502923,-32.148607 0,-46.811146 0.24272,-2.367978 1.982368,-4.751815 4.093567,-5.851393 z"
       id="path3911"
       sodipodi:nodetypes="aaaaaaaaaaassaasasaasasaasasaassa" />
  </g>
</svg>
